<svg width="358" height="174" viewBox="0 0 358 174" fill="none" xmlns="http://www.w3.org/2000/svg">
<circle cx="184" cy="86" r="86" fill="url(#paint0_linear_3_131)"/>
<path d="M242.804 163.695L255.092 145.422L242.83 165.66L242.855 167.716C241.958 167.723 241.07 167.708 240.19 167.672L240.8 141.242L240.783 141.038L240.806 140.999L240.864 138.501L227.408 118.965L240.848 136.632L240.896 137.16L241.356 117.191L229.734 96.9364L241.389 113.683L241.267 72.3133L241.268 72.1756L241.272 72.311L242.043 104.916L252.636 91.6719L242.078 107.725L242.309 125.587L252.056 108.154L242.345 128.212L242.474 138.144L256.649 113.862L242.517 141.609L242.804 163.695Z" fill="#E6E6E6"/>
<path d="M284.156 164.27L296.443 145.998L284.181 166.236L284.207 168.292C283.31 168.299 282.421 168.284 281.542 168.247L282.151 141.817L282.135 141.614L282.157 141.574L282.215 139.077L268.759 119.54L282.199 137.208L282.247 137.735L282.708 117.767L271.085 97.5119L282.741 114.259L282.619 72.8889L282.619 72.7512L282.623 72.8866L283.395 105.492L293.987 92.2475L283.429 108.301L283.661 126.162L293.408 108.73L283.696 128.788L283.825 138.72L298 114.437L283.868 142.185L284.156 164.27Z" fill="#E6E6E6"/>
<path d="M195.815 90.2693C195.815 90.2693 194.152 78.0785 191.382 81.4033C188.611 84.728 191.382 89.7152 191.382 89.7152L193.598 92.4858L195.815 90.8235V90.2693Z" fill="#EEE0D6"/>
<path d="M202.464 94.1482C202.464 94.1482 196.923 88.0528 195.815 89.1611C194.706 90.2693 191.382 90.8235 191.936 93.04C192.49 95.2565 204.127 102.46 204.127 102.46L202.464 94.1482Z" fill="#2D9CDB"/>
<path opacity="0.1" d="M202.464 94.1482C202.464 94.1482 196.923 88.0528 195.815 89.1611C194.706 90.2693 191.382 90.8235 191.936 93.04C192.49 95.2565 204.127 102.46 204.127 102.46L202.464 94.1482Z" fill="#2D9CDB"/>
<path d="M234.05 93.5941V98.0272C234.05 98.0272 234.604 108.001 231.279 107.447C227.954 106.893 229.617 98.5813 229.617 98.5813L230.171 93.5941L234.05 93.5941Z" fill="#EEE0D6"/>
<path d="M232.387 125.734C232.387 125.734 237.374 133.491 239.037 134.046C240.699 134.6 249.565 139.587 250.674 144.574L258.431 154.548L254.552 159.536C254.552 159.536 236.82 140.695 231.833 139.033C226.846 137.37 221.859 129.058 221.859 129.058L232.387 125.734Z" fill="#EEE0D6"/>
<path d="M193.044 112.989C193.044 112.989 182.516 114.651 184.178 121.301C185.84 127.95 201.91 141.803 201.91 141.803L202.464 145.128L208.56 146.236L211.33 143.466L210.776 141.803C210.776 141.803 204.127 135.708 203.573 133.491C203.018 131.275 196.923 122.409 194.152 121.855L198.031 119.638L193.044 112.989Z" fill="#EEE0D6"/>
<path d="M256.769 154.548C256.769 154.548 254.552 151.224 257.877 151.778C261.202 152.332 263.419 152.886 263.419 155.103C263.419 157.319 260.648 172.835 257.323 171.726C253.998 170.618 256.769 165.631 256.769 165.631C256.769 165.631 255.107 161.198 253.998 160.644C252.89 160.09 252.89 157.319 253.998 157.319C255.107 157.319 257.323 155.657 256.769 154.548Z" fill="#2F2E41"/>
<path d="M209.668 142.358C209.668 142.358 209.668 139.587 211.884 142.358C214.101 145.128 215.209 147.345 212.993 149.007C210.776 150.669 203.018 154.548 203.018 154.548C203.018 154.548 194.706 156.211 195.815 152.332C195.815 152.332 201.356 149.561 201.356 147.345C201.356 145.128 201.356 141.249 203.018 142.358C204.681 143.466 209.668 144.02 209.668 142.358Z" fill="#2F2E41"/>
<path d="M220.196 100.798C220.196 100.798 227.954 101.906 227.4 112.989C227.4 112.989 237.374 122.963 234.604 126.288C231.833 129.613 225.738 135.708 223.521 134.046C221.305 132.383 214.655 119.638 214.655 119.638C214.655 119.638 199.14 125.18 196.369 122.409C193.598 119.638 190.828 112.989 190.828 112.989L204.681 105.785L220.196 100.798Z" fill="#2F2E41"/>
<path d="M198.585 69.2124C202.258 69.2124 205.235 66.2353 205.235 62.5629C205.235 58.8904 202.258 55.9133 198.585 55.9133C194.913 55.9133 191.936 58.8904 191.936 62.5629C191.936 66.2353 194.913 69.2124 198.585 69.2124Z" fill="#EEE0D6"/>
<path d="M203.573 63.117C203.573 63.117 207.451 69.2124 208.56 69.7666C209.668 70.3207 200.802 75.862 200.802 75.862C200.802 75.862 200.802 68.6583 198.031 66.9959L203.573 63.117Z" fill="#EEE0D6"/>
<path d="M204.127 69.2124C204.127 69.2124 212.993 66.4418 214.655 70.8748C216.317 75.3079 220.196 83.6198 219.642 89.1611C219.088 94.7024 217.98 93.5941 219.642 95.2565C221.305 96.9189 222.413 95.8107 221.859 98.0272C221.305 100.244 220.751 100.244 221.305 101.352C221.859 102.46 214.655 106.339 208.56 106.893L202.464 107.447C202.464 107.447 202.464 97.473 201.356 95.2565C200.248 93.04 198.031 88.607 198.031 86.9446V82.546C198.031 79.6184 198.795 76.7415 200.248 74.1996C200.248 74.1996 203.573 69.2124 204.127 69.2124Z" fill="#2F80ED"/>
<path d="M210.776 71.4289C210.776 71.4289 231.279 73.0913 233.496 78.6326C235.712 84.1739 236.82 95.2565 234.604 95.2565C232.387 95.2565 229.617 96.3647 229.062 95.2565C228.508 94.1482 226.292 83.0656 225.738 83.0656C225.184 83.0656 208.56 81.4032 208.56 81.4032C208.56 81.4032 201.356 72.5372 210.776 71.4289Z" fill="#2F80ED"/>
<path d="M198.318 60.9144C198.318 60.9144 196.554 57.8478 194.348 60.5114C192.142 63.175 188.554 58.2802 189.105 57.2357C189.656 56.1913 191.601 57.2827 194.934 56.1929C198.268 55.1031 204.69 52.8831 205.765 60.125C206.841 67.367 204.279 66.6078 204.279 66.6078C204.279 66.6078 203.105 60.1906 202.044 62.0339L200.983 63.8772L200.063 64.1037L198.318 60.9144Z" fill="#2F2E41"/>
<path d="M320 172H38V174H320V172Z" fill="#AEAEAE"/>
<path d="M149.31 38H65V152.039H149.31V38Z" fill="#E6E6E6"/>
<path d="M146.339 42.0185H67.9709V148.021H146.339V42.0185Z" fill="white"/>
<path d="M136.038 60.6111H78.5229C78.057 60.6105 77.6104 60.425 77.2812 60.0953C76.952 59.7657 76.7671 59.3188 76.7671 58.853C76.7671 58.3871 76.952 57.9402 77.2812 57.6106C77.6104 57.281 78.057 57.0955 78.5229 57.0949H136.038C136.269 57.0945 136.498 57.1398 136.712 57.228C136.925 57.3162 137.119 57.4457 137.283 57.609C137.446 57.7723 137.576 57.9662 137.665 58.1796C137.753 58.3931 137.799 58.6219 137.799 58.853C137.799 59.084 137.753 59.3128 137.665 59.5263C137.576 59.7397 137.446 59.9337 137.283 60.0969C137.119 60.2602 136.925 60.3897 136.712 60.4779C136.498 60.5661 136.269 60.6114 136.038 60.6111Z" fill="#E6E6E6"/>
<path d="M136.038 78.6944H78.5229C78.057 78.6938 77.6104 78.5083 77.2812 78.1787C76.952 77.849 76.7671 77.4022 76.7671 76.9363C76.7671 76.4705 76.952 76.0236 77.2812 75.694C77.6104 75.3643 78.057 75.1788 78.5229 75.1782H136.038C136.269 75.1779 136.498 75.2232 136.712 75.3114C136.925 75.3996 137.119 75.5291 137.283 75.6923C137.446 75.8556 137.576 76.0495 137.665 76.263C137.753 76.4764 137.799 76.7053 137.799 76.9363C137.799 77.1674 137.753 77.3962 137.665 77.6097C137.576 77.8231 137.446 78.017 137.283 78.1803C137.119 78.3436 136.925 78.4731 136.712 78.5613C136.498 78.6495 136.269 78.6947 136.038 78.6944Z" fill="#E6E6E6"/>
<path d="M136.038 96.7778H78.5229C78.057 96.7772 77.6104 96.5917 77.2812 96.2621C76.952 95.9324 76.7671 95.4856 76.7671 95.0197C76.7671 94.5538 76.952 94.107 77.2812 93.7774C77.6104 93.4477 78.057 93.2622 78.5229 93.2616H136.038C136.269 93.2613 136.498 93.3065 136.712 93.3948C136.925 93.483 137.119 93.6124 137.283 93.7757C137.446 93.939 137.576 94.1329 137.665 94.3464C137.753 94.5598 137.799 94.7886 137.799 95.0197C137.799 95.2508 137.753 95.4796 137.665 95.693C137.576 95.9065 137.446 96.1004 137.283 96.2637C137.119 96.427 136.925 96.5564 136.712 96.6447C136.498 96.7329 136.269 96.7781 136.038 96.7778Z" fill="#E6E6E6"/>
<path d="M136.038 114.861H78.5229C78.057 114.861 77.6104 114.675 77.2812 114.345C76.952 114.016 76.7671 113.569 76.7671 113.103C76.7671 112.637 76.952 112.19 77.2812 111.861C77.6104 111.531 78.057 111.346 78.5229 111.345H136.038C136.269 111.345 136.498 111.39 136.712 111.478C136.925 111.566 137.119 111.696 137.283 111.859C137.446 112.022 137.576 112.216 137.665 112.43C137.753 112.643 137.799 112.872 137.799 113.103C137.799 113.334 137.753 113.563 137.665 113.776C137.576 113.99 137.446 114.184 137.283 114.347C137.119 114.51 136.925 114.64 136.712 114.728C136.498 114.816 136.269 114.862 136.038 114.861Z" fill="#E6E6E6"/>
<path d="M136.038 132.945H78.5229C78.057 132.944 77.6104 132.759 77.2812 132.429C76.952 132.099 76.7671 131.652 76.7671 131.187C76.7671 130.721 76.952 130.274 77.2812 129.944C77.6104 129.615 78.057 129.429 78.5229 129.428H136.038C136.269 129.428 136.498 129.473 136.712 129.562C136.925 129.65 137.119 129.779 137.283 129.943C137.446 130.106 137.576 130.3 137.665 130.513C137.753 130.727 137.799 130.955 137.799 131.187C137.799 131.418 137.753 131.646 137.665 131.86C137.576 132.073 137.446 132.267 137.283 132.431C137.119 132.594 136.925 132.723 136.712 132.811C136.498 132.9 136.269 132.945 136.038 132.945Z" fill="#E6E6E6"/>
<path d="M125.992 60.6111H78.2718C78.0407 60.6114 77.8118 60.5661 77.5983 60.4779C77.3847 60.3897 77.1906 60.2602 77.0271 60.0969C76.8636 59.9337 76.7339 59.7397 76.6454 59.5263C76.5569 59.3128 76.5114 59.084 76.5114 58.853C76.5114 58.6219 76.5569 58.3931 76.6454 58.1796C76.7339 57.9662 76.8636 57.7723 77.0271 57.609C77.1906 57.4457 77.3847 57.3162 77.5983 57.228C77.8118 57.1398 78.0407 57.0945 78.2718 57.0949H125.992C126.458 57.0955 126.904 57.281 127.234 57.6106C127.563 57.9402 127.748 58.3871 127.748 58.853C127.748 59.3188 127.563 59.7657 127.234 60.0953C126.904 60.425 126.458 60.6105 125.992 60.6111Z" fill="#2F80ED"/>
<path d="M111.173 78.6944H78.2718C77.8055 78.6944 77.3583 78.5092 77.0286 78.1795C76.6989 77.8498 76.5137 77.4026 76.5137 76.9363C76.5137 76.4701 76.6989 76.0229 77.0286 75.6932C77.3583 75.3634 77.8055 75.1782 78.2718 75.1782H111.173C111.405 75.1779 111.633 75.2232 111.847 75.3114C112.061 75.3996 112.255 75.5291 112.418 75.6923C112.582 75.8556 112.711 76.0495 112.8 76.263C112.888 76.4764 112.934 76.7053 112.934 76.9363C112.934 77.1674 112.888 77.3962 112.8 77.6097C112.711 77.8231 112.582 78.017 112.418 78.1803C112.255 78.3436 112.061 78.4731 111.847 78.5613C111.633 78.6495 111.405 78.6947 111.173 78.6944Z" fill="#2F80ED"/>
<path d="M93.0901 96.7778H78.2718C78.0407 96.7781 77.8118 96.7329 77.5983 96.6447C77.3847 96.5564 77.1906 96.427 77.0271 96.2637C76.8636 96.1004 76.7339 95.9065 76.6454 95.693C76.5569 95.4796 76.5114 95.2508 76.5114 95.0197C76.5114 94.7886 76.5569 94.5598 76.6454 94.3464C76.7339 94.1329 76.8636 93.939 77.0271 93.7757C77.1906 93.6124 77.3847 93.483 77.5983 93.3948C77.8118 93.3065 78.0407 93.2613 78.2718 93.2616H93.0901C93.556 93.2622 94.0026 93.4477 94.3318 93.7774C94.661 94.107 94.8459 94.5538 94.8459 95.0197C94.8459 95.4856 94.661 95.9324 94.3318 96.2621C94.0026 96.5917 93.556 96.7772 93.0901 96.7778Z" fill="#2F80ED"/>
<path d="M130.513 114.861H78.2718C77.8055 114.861 77.3583 114.676 77.0286 114.346C76.6989 114.017 76.5137 113.569 76.5137 113.103C76.5137 112.637 76.6989 112.19 77.0286 111.86C77.3583 111.53 77.8055 111.345 78.2718 111.345H130.513C130.979 111.345 131.426 111.53 131.756 111.86C132.086 112.19 132.271 112.637 132.271 113.103C132.271 113.569 132.086 114.017 131.756 114.346C131.426 114.676 130.979 114.861 130.513 114.861Z" fill="#2F80ED"/>
<path d="M118.959 132.945H78.2718C78.0407 132.945 77.8118 132.9 77.5983 132.811C77.3847 132.723 77.1906 132.594 77.0271 132.431C76.8636 132.267 76.7339 132.073 76.6454 131.86C76.5569 131.646 76.5114 131.418 76.5114 131.187C76.5114 130.955 76.5569 130.727 76.6454 130.513C76.7339 130.3 76.8636 130.106 77.0271 129.943C77.1906 129.779 77.3847 129.65 77.5983 129.562C77.8118 129.473 78.0407 129.428 78.2718 129.428H118.959C119.19 129.428 119.419 129.473 119.633 129.562C119.846 129.65 120.041 129.779 120.204 129.943C120.368 130.106 120.497 130.3 120.586 130.513C120.674 130.727 120.72 130.955 120.72 131.187C120.72 131.418 120.674 131.646 120.586 131.86C120.497 132.073 120.368 132.267 120.204 132.431C120.041 132.594 119.846 132.723 119.633 132.811C119.419 132.9 119.19 132.945 118.959 132.945Z" fill="#2F80ED"/>
<defs>
<linearGradient id="paint0_linear_3_131" x1="85" y1="-1.45373e-07" x2="236" y2="186" gradientUnits="userSpaceOnUse">
<stop stop-color="#4EFFDF"/>
<stop offset="1" stop-color="#ACB4FF"/>
</linearGradient>
</defs>
</svg>
