<svg width="948" height="948" viewBox="0 0 948 948" fill="none" xmlns="http://www.w3.org/2000/svg">
<g opacity="0.65" filter="url(#filter0_d_228_514)">
<rect x="39" y="39" width="820" height="820" fill="black"/>
</g>
<rect opacity="0.65" x="39" y="39" width="820" height="820" fill="black"/>
<path fill-rule="evenodd" clip-rule="evenodd" d="M744 246.746L351.9 695L154 497.039L202.034 448.99L348.591 595.592L692.877 202L744 246.746Z" fill="#EB5757"/>
<path d="M147.636 495L120.182 401.909H148.364L161.091 459.182H161.818L176.909 401.909H199.091L214.182 459.364H214.909L227.636 401.909H255.818L228.364 495H204.182L188.364 443H187.636L171.818 495H147.636Z" fill="#F2F2F2"/>
<path d="M343.827 448.455C343.827 458.818 341.812 467.561 337.781 474.682C333.751 481.773 328.312 487.152 321.463 490.818C314.615 494.455 306.978 496.273 298.554 496.273C290.069 496.273 282.403 494.439 275.554 490.773C268.736 487.076 263.312 481.682 259.281 474.591C255.281 467.47 253.281 458.758 253.281 448.455C253.281 438.091 255.281 429.364 259.281 422.273C263.312 415.152 268.736 409.773 275.554 406.136C282.403 402.47 290.069 400.636 298.554 400.636C306.978 400.636 314.615 402.47 321.463 406.136C328.312 409.773 333.751 415.152 337.781 422.273C341.812 429.364 343.827 438.091 343.827 448.455ZM317.827 448.455C317.827 442.879 317.084 438.182 315.6 434.364C314.145 430.515 311.978 427.606 309.1 425.636C306.251 423.636 302.736 422.636 298.554 422.636C294.372 422.636 290.842 423.636 287.963 425.636C285.115 427.606 282.948 430.515 281.463 434.364C280.009 438.182 279.281 442.879 279.281 448.455C279.281 454.03 280.009 458.742 281.463 462.591C282.948 466.409 285.115 469.318 287.963 471.318C290.842 473.288 294.372 474.273 298.554 474.273C302.736 474.273 306.251 473.288 309.1 471.318C311.978 469.318 314.145 466.409 315.6 462.591C317.084 458.742 317.827 454.03 317.827 448.455Z" fill="#F2F2F2"/>
<path d="M351.04 495V401.909H391.222C398.131 401.909 404.176 403.167 409.358 405.682C414.54 408.197 418.57 411.818 421.449 416.545C424.328 421.273 425.767 426.939 425.767 433.545C425.767 440.212 424.282 445.833 421.313 450.409C418.373 454.985 414.237 458.439 408.904 460.773C403.601 463.106 397.404 464.273 390.313 464.273H366.313V444.636H385.222C388.192 444.636 390.722 444.273 392.813 443.545C394.934 442.788 396.555 441.591 397.676 439.955C398.828 438.318 399.404 436.182 399.404 433.545C399.404 430.879 398.828 428.712 397.676 427.045C396.555 425.348 394.934 424.106 392.813 423.318C390.722 422.5 388.192 422.091 385.222 422.091H376.313V495H351.04ZM405.586 452.273L428.858 495H401.404L378.676 452.273H405.586Z" fill="#F2F2F2"/>
<path d="M432.06 495V401.909H457.333V439.545H458.606L486.606 401.909H516.06L484.606 443.364L516.787 495H486.606L465.696 460.091L457.333 471V495H432.06Z" fill="#F2F2F2"/>
<path d="M603.387 448.455C603.387 458.818 601.372 467.561 597.341 474.682C593.311 481.773 587.872 487.152 581.023 490.818C574.175 494.455 566.538 496.273 558.114 496.273C549.629 496.273 541.963 494.439 535.114 490.773C528.296 487.076 522.872 481.682 518.841 474.591C514.841 467.47 512.841 458.758 512.841 448.455C512.841 438.091 514.841 429.364 518.841 422.273C522.872 415.152 528.296 409.773 535.114 406.136C541.963 402.47 549.629 400.636 558.114 400.636C566.538 400.636 574.175 402.47 581.023 406.136C587.872 409.773 593.311 415.152 597.341 422.273C601.372 429.364 603.387 438.091 603.387 448.455ZM577.387 448.455C577.387 442.879 576.644 438.182 575.16 434.364C573.705 430.515 571.538 427.606 568.66 425.636C565.811 423.636 562.296 422.636 558.114 422.636C553.932 422.636 550.402 423.636 547.523 425.636C544.675 427.606 542.508 430.515 541.023 434.364C539.569 438.182 538.841 442.879 538.841 448.455C538.841 454.03 539.569 458.742 541.023 462.591C542.508 466.409 544.675 469.318 547.523 471.318C550.402 473.288 553.932 474.273 558.114 474.273C562.296 474.273 565.811 473.288 568.66 471.318C571.538 469.318 573.705 466.409 575.16 462.591C576.644 458.742 577.387 454.03 577.387 448.455Z" fill="#F2F2F2"/>
<path d="M665.691 401.909H690.964V461.545C690.964 468.636 689.267 474.773 685.873 479.955C682.509 485.106 677.812 489.091 671.782 491.909C665.752 494.697 658.752 496.091 650.782 496.091C642.752 496.091 635.721 494.697 629.691 491.909C623.661 489.091 618.964 485.106 615.6 479.955C612.267 474.773 610.6 468.636 610.6 461.545V401.909H635.873V459.364C635.873 462.242 636.509 464.818 637.782 467.091C639.055 469.333 640.812 471.091 643.055 472.364C645.327 473.636 647.903 474.273 650.782 474.273C653.691 474.273 656.267 473.636 658.509 472.364C660.752 471.091 662.509 469.333 663.782 467.091C665.055 464.818 665.691 462.242 665.691 459.364V401.909Z" fill="#F2F2F2"/>
<path d="M695.95 422.273V401.909H776.859V422.273H748.859V495H723.95V422.273H695.95Z" fill="#F2F2F2"/>
<defs>
<filter id="filter0_d_228_514" x="0" y="0" width="948" height="948" filterUnits="userSpaceOnUse" color-interpolation-filters="sRGB">
<feFlood flood-opacity="0" result="BackgroundImageFix"/>
<feColorMatrix in="SourceAlpha" type="matrix" values="0 0 0 0 0 0 0 0 0 0 0 0 0 0 0 0 0 0 127 0" result="hardAlpha"/>
<feOffset dx="25" dy="25"/>
<feGaussianBlur stdDeviation="32"/>
<feComposite in2="hardAlpha" operator="out"/>
<feColorMatrix type="matrix" values="0 0 0 0 0 0 0 0 0 0.426316 0 0 0 0 1 0 0 0 0.28 0"/>
<feBlend mode="normal" in2="BackgroundImageFix" result="effect1_dropShadow_228_514"/>
<feBlend mode="normal" in="SourceGraphic" in2="effect1_dropShadow_228_514" result="shape"/>
</filter>
</defs>
</svg>
