<?xml version="1.0" encoding="UTF-8" standalone="no"?>
<!DOCTYPE svg PUBLIC "-//W3C//DTD SVG 1.1//EN" "http://www.w3.org/Graphics/SVG/1.1/DTD/svg11.dtd">
<svg width="100%" height="100%" viewBox="0 0 500 500" version="1.1" xmlns="http://www.w3.org/2000/svg" xmlns:xlink="http://www.w3.org/1999/xlink" xml:space="preserve" xmlns:serif="http://www.serif.com/" style="fill-rule:evenodd;clip-rule:evenodd;stroke-linejoin:round;stroke-miterlimit:2;">
    <g>
        <g transform="matrix(1.21412,0,0,1.21412,-66.6667,-84.7059)">
            <rect x="54.91" y="69.767" width="411.822" height="411.822" style="fill:url(#_Linear1);"/>
        </g>
        <g transform="matrix(1.45623,0,0,1.45623,-132.474,-10.1343)">
            <path d="M384.035,168.624L409.618,210.007C412.106,214.562 412.664,222.203 410.877,227.07C410.877,227.07 407.227,237.453 405.264,240.528C402.106,245.495 389.381,257.928 389.381,257.928C385.885,261.757 378.848,264.862 373.656,264.862C373.656,264.862 349.048,269.662 343.102,264.862C341.46,275.453 326.66,293.495 322.335,302.37C318.202,310.857 306.252,333.92 306.252,333.92L300.927,350.312L224.36,350.312L219.048,333.92C219.048,333.92 207.098,310.857 202.96,302.37C198.639,293.495 183.839,275.453 182.193,264.862C176.252,269.666 151.635,264.862 151.635,264.862C146.448,264.862 139.406,261.757 135.91,257.928C135.91,257.928 123.189,245.491 120.027,240.528C118.068,237.453 114.423,227.07 114.423,227.07C112.627,222.203 113.189,214.562 115.668,210.007L143.193,168.316C143.193,168.316 155.16,154.966 162.223,152.782C167.256,151.228 178.96,149.803 183.306,152.782C184.839,153.832 186.639,159.445 186.639,159.445C188.473,163.12 186.485,167.841 182.198,169.982C177.906,172.128 176.568,173.495 174.431,173.866C171.065,174.449 165.908,173.839 160.748,172.84L153.593,196.062L147.798,212.703L157.793,202.703C161.464,199.037 168.589,196.72 173.718,197.528L176.239,197.92C181.364,198.732 187.256,202.57 189.389,206.487C191.531,210.412 193.26,213.591 193.26,213.591C193.26,213.591 197.102,212.383 201.835,210.903C206.568,209.416 214.281,211.457 219.052,215.449L227.698,222.695C227.698,222.695 241.135,214.095 242.993,209.378C244.731,204.962 241.61,191.316 241.61,191.316C241.61,191.316 237.616,185.138 235.269,177.989C234.549,175.893 232.564,170.034 232.052,167.737C230.623,161.337 231.506,154.741 232.685,148.237C234.898,141.441 239.598,135.937 247.314,131.978C253.91,126.778 261.102,125.57 268.898,128.362C274.918,128.899 280.243,131.503 284.731,136.62C288.598,141.22 291.156,146.749 292.881,152.882C293.868,157.703 294.006,162.657 293.273,167.737L292.223,173.157C291.318,179.607 289.48,186.036 286.506,189.403C283.443,196.432 284.285,204.349 284.285,209.378C284.285,214.087 297.602,222.695 297.602,222.695C297.602,222.695 301.468,219.453 306.243,215.449C311.014,211.457 318.723,209.416 323.46,210.903L334.493,213.591C334.493,213.591 333.764,210.412 335.902,206.487C338.039,202.57 343.931,198.732 349.056,197.92L351.581,197.528C356.702,196.72 363.831,199.037 367.498,202.703L377.502,212.703L371.698,196.062L364.605,173.027C359.298,173.917 354.119,174.43 350.864,173.866C348.727,173.495 343.098,169.982 343.098,169.982C338.806,167.841 336.823,163.12 338.66,159.445C340.498,155.766 340.46,153.832 341.989,152.782C346.331,149.803 358.035,151.228 363.077,152.782C370.135,154.966 384.035,168.624 384.035,168.624Z" style="fill:rgb(235,235,235);"/>
        </g>
        <g transform="matrix(0.607059,0,0,1.21412,-33.3333,-84.7059)">
            <rect x="54.91" y="69.767" width="411.822" height="411.822" style="fill-opacity:0.1;"/>
        </g>
        <g transform="matrix(3.71716e-17,0.607059,-1.21412,7.43433e-17,584.706,216.667)">
            <rect x="54.91" y="69.767" width="411.822" height="411.822" style="fill-opacity:0.1;"/>
        </g>
    </g>
    <defs>
        <linearGradient id="_Linear1" x1="0" y1="0" x2="1" y2="0" gradientUnits="userSpaceOnUse" gradientTransform="matrix(-15.9621,420.295,-420.295,-15.9621,284.231,57.0377)"><stop offset="0" style="stop-color:rgb(58,43,89);stop-opacity:1"/><stop offset="1" style="stop-color:rgb(30,23,38);stop-opacity:1"/></linearGradient>
    </defs>
</svg>
